<svg width="50" height="50" viewBox="0 0 50 50" fill="none" xmlns="http://www.w3.org/2000/svg">
<g clip-path="url(#clip0_3_48)">
<path d="M40 0H10C4.47766 0 0 4.47766 0 10V40C0 45.5223 4.47766 50 10 50H40C45.5223 50 50 45.5223 50 40V10C50 4.47766 45.5223 0 40 0ZM40.5777 20.3606L25.1085 35.8277C24.2543 36.684 23.1362 37.1096 22.017 37.1096C20.8989 37.1096 19.7787 36.684 18.9245 35.8277L9.42128 26.3255C7.71489 24.6191 7.71489 21.8489 9.42128 20.1404C11.1309 18.4319 13.8989 18.4319 15.6085 20.1404L22.016 26.5479L34.3915 14.1723C36.0989 12.4649 38.8691 12.4649 40.5766 14.1723C42.2872 15.8809 42.2872 18.6511 40.5777 20.3606Z" fill="#13A624"/>
</g>
<defs>
<clipPath id="clip0_3_48">
<rect width="50" height="50" fill="white"/>
</clipPath>
</defs>
</svg>
